<svg width="22" height="20" viewBox="0 0 22 20" fill="#000000" class="icon" version="1.1" xmlns="http://www.w3.org/2000/svg">

<g id="SVGRepo_bgCarrier" stroke-width="0"/>

<g id="SVGRepo_tracerCarrier" stroke-linecap="round" stroke-linejoin="round"/>

<g id="SVGRepo_iconCarrier">

<path d="M2.055278 18.75c-1.138954 0-2.082144-.89012-2.082144-1.988266V2.238712C0-.125252.891574-1.016296 2.055278-1.016296h17.255145c1.138954 0 2.082144.89012 2.082144 1.988266v13.523772l-.179388-.043863c-.632659-.187957-1.267708-.264804-1.934035-.264804H17.993667l-.179388-.528347H16.514063V2.238712c0-.53169-.483777-.973495-.975401-.973495H2.055278c-.491624 0-.975401.441805-.975401.973495v15.523772c0 .53169.483777.973495.975401.973495h8.461347l.179388.179388c.204631.255839.090226.454259.179388.607522-.179388.322609-.264804.575937.179388.92793l.179388.179388h-8.461347z" fill=""/>

<path d="M6.481173 3.490728c-.479307 0-.867237-.634234-.867237-1.395429 0-.761195.38793-1.395429.867237-1.395429h5.582615c.479307 0 .867237.634234.867237 1.395429 0 .761195-.38793 1.395429-.867237 1.395429H6.481173z" fill=""/>

<path d="M14.74691 1.896603H6.481173c-.38793 0-.692601.618509-.692601 1.39303 0 .774521.304671 1.39303.692601 1.39303h5.582615c.38793 0 .692601-.618509.692601-1.39303s-.304671-1.39303-.692601-1.39303zM6.38531 7.440213c-.38793 0-.692601-.618509-.692601-1.395429s.304671-1.395429.692601-1.395429h3.63509c.38793 0 .692601.618509.692601 1.395429s-.304671 1.395429-.692601 1.395429H6.38531z" fill=""/>

<path d="M10.990573 5.938225H6.38531c-.264804 0-.462515.618509-.462515 1.39303 0 .774521.197711 1.39303.462515 1.39303h3.63509c.264804 0 .462515-.618509.462515-1.39303s-.197711-1.39303-.462515-1.39303zM14.021649 16.602003c-1.078797 0-2.426202-.064213-4.073438-.265668-2.046546-.265668-3.97309-1.747105-5.345937-4.054034l-3.41329-3.50923c-1.74562-1.687455-1.803585-3.931548-.274215-5.511472.58799-.602858 1.633818-.97043 2.573283-.97043 1.188456 0 2.351345.418503 3.147578 1.135064 0 .179388 0 .322609.179388.628306 0 .179388 0 .264804-.179388.388893V5.542463l.179388.39585c.095233.264804.22841.568423.39585.604217.39585 0 1.040107-.324347 1.42007-.412758 1.223623 0 1.464057-.337496 1.65988-.89688.105654-.139026-.162697-1.591029-.682931-1.944325-1.032923-.568423-.897404.464645-.744827 1.078667.178777 2.643835 1.041103 5.498623 4.654264 6.239968 6.306476-1.326627 6.314606-2.156717 2.453689-2.795589 7.15528-.831238 11.057905 9.688492.316473 12.050721 14.615225 5.27535 4.057074 6.589057 7.642009 5.687319 5.115014 0 0 1.594727 3.951813 6.53227 4.725383zM6.407206 10.417149c-.059186 0-.174208-.418503-.392582-.322609.067833-.352587-.328603-.430377.288681-.678881.372968-.352587.440539.179388-.391845.249344z" fill=""/>

</g>

</svg>
