<svg width="22" height="20" viewBox="0 0 22 20" fill="none" xmlns="http://www.w3.org/2000/svg">
  <g>
    <g>
      <path d="m19.1585 0h-16.317c-9.374,0-17,7.626-17,17v291c0,9.374 7.626,17 17,17h16.317c9.374,0 17-7.626 17-17v-291c0-9.374-7.626-17-17-17zm7,308c0,3.859-3.141,7-7,7h-16.317c-3.86,0-7-3.141-7-7v-291c0-3.86 3.14-7 7-7h16.317c3.859,0 7,3.14 7,7v291z" fill="#B6B6B6"/>
      <path d="m5,216h-3c-9.374,0-17,7.626-17,17v21c0,9.374 7.626,17 17,17h3c9.374,0 17-7.626 17-17v-21c0-9.374-7.626-17-17-17zm7,38c0,3.859-3.14,7-7,7h-3c-3.86,0-7-3.141-7-7v-21c0-3.859 3.14-7 7-7h3c3.86,0 7,3.141 7,7v21z" fill="#B6B6B6"/>
      <path d="M8.756,61.051C6.664,56.788,4.657,54,1,54H-3c-9.374,0-17,7.626-17,17v21c0,9.374 7.626,17 17,17h21c9.374,0,17-7.626,17-17V71c0-0.533-0.032-1.059-0.08-1.58l12.748-12.748l-5.766-5.767L8.756,61.051z M2,92c0,3.86-3.14,7-7,7H-3c-3.86,0-7-3.14-7-7V71c0-3.86,3.14-7,7-7h21c2.917,0,5.42,1.795,6.471,4.336L-5.216,83.591L-13.928,73.304l-5.656,5.656l13.576,13.576l0.015-0.016L-5.34,95L-2,79.34V92z" fill="#B6B6B6"/>
      <path d="m9.902,131.905l-10.146,10.146c-3.092-4.263-8.099-7.051-13.756-7.051h-21c-9.374,0-17,7.626-17,17v21c0,9.374 7.626,17 17,17h21c9.374,0 17-7.626 17-17v-21c0-0.533-0.032-1.059-0.08-1.58l12.748-12.748-5.766-5.767zm-16.902,41.095c0,3.859-3.14,7-7,7h-21c-3.86,0-7-3.141-7-7v-21c0-3.86 3.14-7 7-7h21c2.917,0 5.42,1.795 6.471,4.336l-15.255,15.255-10.288-10.287-5.656,5.656 13.576,13.576 .015-.016 2.477,2.48 15.66-15.66v12.66z" fill="#B6B6B6"/>
      <rect width="3.21" x="1.33" y="3.93" height="0.06" fill="#B6B6B6"/>
      <rect width="1.74" x="1.33" y="4.59" height="0.06" fill="#B6B6B6"/>
      <rect width="3.21" x="1.33" y="8.49" height="0.06" fill="#B6B6B6"/>
      <rect width="2.93" x="1.33" y="10.14" height="0.06" fill="#B6B6B6"/>
      <rect width="3.44" x="1.33" y="13.73" height="0.06" fill="#B6B6B6"/>
    </g>
  </g>
</svg>
