<?xml version="1.0" encoding="UTF-8"?>
<svg xmlns="http://www.w3.org/2000/svg" xmlns:xlink="http://www.w3.org/1999/xlink" width="22px" height="22px" viewBox="0 0 22 22" version="1.1">
<g id="surface1">
<path style=" stroke:none;fill-rule:nonzero;fill:rgb(0%,0%,0%);fill-opacity:1;" d="M 20.238281 0 L 1.761719 0 C 1.125 0 0.609375 0.515625 0.609375 1.152344 L 0.609375 20.847656 C 0.609375 21.484375 1.125 22 1.761719 22 L 20.238281 22 C 20.875 22 21.390625 21.484375 21.390625 20.847656 L 21.390625 1.152344 C 21.390625 0.515625 20.875 0 20.238281 0 Z M 20.714844 20.847656 C 20.714844 21.109375 20.5 21.324219 20.238281 21.324219 L 1.761719 21.324219 C 1.5 21.324219 1.285156 21.109375 1.285156 20.847656 L 1.285156 1.152344 C 1.285156 0.890625 1.5 0.675781 1.761719 0.675781 L 20.238281 0.675781 C 20.5 0.675781 20.714844 0.890625 20.714844 1.152344 Z M 20.714844 20.847656 "/>
<path style=" stroke:none;fill-rule:nonzero;fill:rgb(0%,0%,0%);fill-opacity:1;" d="M 5.007812 14.621094 L 3.585938 14.621094 C 2.953125 14.621094 2.4375 15.136719 2.4375 15.773438 L 2.4375 17.195312 C 2.4375 17.828125 2.953125 18.34375 3.585938 18.34375 L 5.007812 18.34375 C 5.644531 18.34375 6.160156 17.828125 6.160156 17.195312 L 6.160156 15.773438 C 6.160156 15.136719 5.644531 14.621094 5.007812 14.621094 Z M 5.484375 17.195312 C 5.484375 17.453125 5.269531 17.667969 5.007812 17.667969 L 3.585938 17.667969 C 3.328125 17.667969 3.113281 17.453125 3.113281 17.195312 L 3.113281 15.773438 C 3.113281 15.511719 3.328125 15.296875 3.585938 15.296875 L 5.007812 15.296875 C 5.269531 15.296875 5.484375 15.511719 5.484375 15.773438 Z M 5.484375 17.195312 "/>
<path style=" stroke:none;fill-rule:nonzero;fill:rgb(0%,0%,0%);fill-opacity:1;" d="M 5.941406 4.132812 C 5.730469 3.84375 5.390625 3.65625 5.007812 3.65625 L 3.585938 3.65625 C 2.953125 3.65625 2.4375 4.171875 2.4375 4.804688 L 2.4375 6.226562 C 2.4375 6.863281 2.953125 7.378906 3.585938 7.378906 L 5.007812 7.378906 C 5.644531 7.378906 6.160156 6.863281 6.160156 6.226562 L 6.160156 4.804688 C 6.160156 4.769531 6.15625 4.734375 6.15625 4.699219 L 7.015625 3.835938 L 6.628906 3.445312 Z M 5.484375 6.226562 C 5.484375 6.488281 5.269531 6.703125 5.007812 6.703125 L 3.585938 6.703125 C 3.328125 6.703125 3.113281 6.488281 3.113281 6.226562 L 3.113281 4.804688 C 3.113281 4.542969 3.328125 4.332031 3.585938 4.332031 L 5.007812 4.332031 C 5.207031 4.332031 5.375 4.453125 5.449219 4.625 L 4.414062 5.660156 L 3.71875 4.960938 L 3.335938 5.34375 L 4.253906 6.265625 L 4.253906 6.261719 L 4.421875 6.429688 L 5.484375 5.371094 Z M 5.484375 6.226562 "/>
<path style=" stroke:none;fill-rule:nonzero;fill:rgb(0%,0%,0%);fill-opacity:1;" d="M 6.628906 8.929688 L 5.941406 9.617188 C 5.730469 9.328125 5.390625 9.136719 5.007812 9.136719 L 3.585938 9.136719 C 2.953125 9.136719 2.4375 9.65625 2.4375 10.289062 L 2.4375 11.710938 C 2.4375 12.34375 2.953125 12.863281 3.585938 12.863281 L 5.007812 12.863281 C 5.644531 12.863281 6.160156 12.34375 6.160156 11.710938 L 6.160156 10.289062 C 6.160156 10.253906 6.15625 10.21875 6.15625 10.183594 L 7.015625 9.320312 Z M 5.484375 11.710938 C 5.484375 11.972656 5.269531 12.183594 5.007812 12.183594 L 3.585938 12.183594 C 3.328125 12.183594 3.113281 11.972656 3.113281 11.710938 L 3.113281 10.289062 C 3.113281 10.027344 3.328125 9.816406 3.585938 9.816406 L 5.007812 9.816406 C 5.207031 9.816406 5.375 9.9375 5.449219 10.109375 L 4.414062 11.140625 L 3.71875 10.445312 L 3.335938 10.828125 L 4.421875 11.914062 L 5.484375 10.855469 Z M 5.484375 11.710938 "/>
<path style=" stroke:none;fill-rule:nonzero;fill:rgb(0%,0%,0%);fill-opacity:1;" d="M 7.648438 3.992188 L 18.007812 3.992188 L 18.007812 4.601562 L 7.648438 4.601562 Z M 7.648438 3.992188 "/>
<path style=" stroke:none;fill-rule:nonzero;fill:rgb(0%,0%,0%);fill-opacity:1;" d="M 7.648438 5.210938 L 13.132812 5.210938 L 13.132812 5.820312 L 7.648438 5.820312 Z M 7.648438 5.210938 "/>
<path style=" stroke:none;fill-rule:nonzero;fill:rgb(0%,0%,0%);fill-opacity:1;" d="M 7.648438 10.085938 L 18.007812 10.085938 L 18.007812 10.695312 L 7.648438 10.695312 Z M 7.648438 10.085938 "/>
<path style=" stroke:none;fill-rule:nonzero;fill:rgb(0%,0%,0%);fill-opacity:1;" d="M 7.648438 11.304688 L 16.179688 11.304688 L 16.179688 11.914062 L 7.648438 11.914062 Z M 7.648438 11.304688 "/>
<path style=" stroke:none;fill-rule:nonzero;fill:rgb(0%,0%,0%);fill-opacity:1;" d="M 7.648438 15.570312 L 17.398438 15.570312 L 17.398438 16.179688 L 7.648438 16.179688 Z M 7.648438 15.570312 "/>
</g>
</svg>
